<?xml version="1.0" encoding="utf-8"?>
<!-- Generator: Adobe Illustrator 18.0.0, SVG Export Plug-In . SVG Version: 6.00 Build 0)  -->
<!DOCTYPE svg PUBLIC "-//W3C//DTD SVG 1.1 Tiny//EN" "http://www.w3.org/Graphics/SVG/1.1/DTD/svg11-tiny.dtd">
<svg version="1.1" baseProfile="tiny" id="Layer_1" xmlns="http://www.w3.org/2000/svg" xmlns:xlink="http://www.w3.org/1999/xlink"
	 x="0px" y="0px" viewBox="0 0 237 120" xml:space="preserve">
<path fill="#231F20" d="M88.9,5C75.3,5,64.3,16,64.3,29.6c0,13.6,11,24.6,24.6,24.6s24.6-11,24.6-24.6C113.5,16,102.5,5,88.9,5z
	 M95.4,29.5h-4.3c0,6.8,0,15.2,0,15.2h-6.3c0,0,0-8.3,0-15.2h-3v-5.4h3v-3.5c0-2.5,1.2-6.4,6.4-6.4l4.7,0v5.2c0,0-2.8,0-3.4,0
	c-0.6,0-1.3,0.3-1.3,1.5v3.2h4.8L95.4,29.5z"/>
<path fill="#231F20" d="M207.4,5c-13.6,0-24.6,11-24.6,24.6c0,13.6,11,24.6,24.6,24.6s24.6-11,24.6-24.6C232,16,221,5,207.4,5z
	 M199.7,40.7c-1.8,0-3.2-1.5-3.2-3.2c0-1.8,1.4-3.2,3.2-3.2c1.8,0,3.2,1.4,3.2,3.2C203,39.3,201.5,40.7,199.7,40.7z M207.9,40.8
	c0-3.1-1.2-5.9-3.3-8.1c-2.1-2.2-5-3.3-8-3.3v-4.7c8.8,0,16,7.2,16,16.1H207.9z M216.1,40.8c0-10.9-8.8-19.7-19.6-19.7v-4.7
	c13.4,0,24.3,10.9,24.3,24.4H216.1z"/>
<g>
	<path fill="#231F20" d="M39.3,86.4c-3.2,0-3.6,3.2-3.6,3.2h6.7C42.4,89.6,42.5,86.4,39.3,86.4z"/>
	<path fill="#231F20" d="M24,89.6h-6v5.5h5.3c0.1,0,0.2,0,0.4,0c0.9,0,2.5-0.3,2.5-2.7C26.2,89.5,24,89.6,24,89.6z"/>
	<path fill="#231F20" d="M29.6,64.2C16,64.2,5,75.3,5,88.9c0,13.6,11,24.6,24.6,24.6c13.6,0,24.6-11,24.6-24.6
		C54.3,75.3,43.2,64.2,29.6,64.2z M34.8,79.4h8.5v2.5h-8.5V79.4z M30.5,92.6c0,6.3-6.5,6.1-6.5,6.1h-6h-0.2h-4.5V78.2h4.5H18h6
		c3.2,0,5.8,1.8,5.8,5.5c0,3.7-3.1,3.9-3.1,3.9C30.8,87.5,30.5,92.6,30.5,92.6z M46.4,92.3H35.7c0,3.8,3.6,3.6,3.6,3.6
		c3.4,0,3.3-2.2,3.3-2.2h3.6c0,5.9-7,5.5-7,5.5c-8.4,0-7.9-7.9-7.9-7.9s0-7.9,7.9-7.9C47.5,83.4,46.4,92.3,46.4,92.3z"/>
	<path fill="#231F20" d="M25.5,84c0-2.1-1.5-2.1-1.5-2.1h-0.8H18v4.6h5.6C24.6,86.4,25.5,86.1,25.5,84z"/>
</g>
<g>
	<polygon fill="#231F20" points="99,84.2 99,80.2 99,79.6 98.5,79.6 94.5,79.7 94.5,84.2 	"/>
	<path fill="#231F20" d="M88.8,94.7c2.6,0,4.7-2.1,4.7-4.7c0-1-0.3-2-0.9-2.7c-0.9-1.2-2.2-2-3.8-2c-1.6,0-3,0.8-3.8,2
		C84.4,88,84,88.9,84,89.9C84,92.5,86.2,94.7,88.8,94.7z"/>
	<path fill="#231F20" d="M88.9,64.9c-13.6,0-24.6,11-24.6,24.6c0,13.6,11,24.6,24.6,24.6c13.6,0,24.6-11,24.6-24.6
		C113.5,76,102.5,64.9,88.9,64.9z M102.1,87.2v11c0,2.9-2.3,5.2-5.2,5.2H80.5c-2.9,0-5.2-2.3-5.2-5.2v-11v-5.5
		c0-2.9,2.3-5.2,5.2-5.2H97c2.9,0,5.2,2.3,5.2,5.2V87.2z"/>
	<path fill="#231F20" d="M96.1,89.9c0,4-3.3,7.3-7.3,7.3c-4,0-7.3-3.3-7.3-7.3c0-1,0.2-1.9,0.5-2.7h-4v11c0,1.4,1.2,2.6,2.6,2.6H97
		c1.4,0,2.6-1.2,2.6-2.6v-11h-4C95.9,88,96.1,89,96.1,89.9z"/>
</g>
<g>
	<path fill="#231F20" d="M143.5,88.1c0.6,0,1.2-0.2,1.6-0.7c0.6-0.7,0.9-1.9,0.8-3.2c-0.3-2.3-1.9-4.2-3.6-4.2l-0.1,0
		c-0.6,0-1.1,0.2-1.6,0.7c-0.6,0.7-0.9,1.9-0.7,3.1C140.2,86.1,141.8,88.1,143.5,88.1L143.5,88.1z"/>
	<path fill="#231F20" d="M145.4,95c-0.2-0.1-0.3-0.2-0.5-0.4c-0.5-0.2-1.1-0.2-1.7-0.3h-0.1c-2.6,0-4.9,1.6-4.9,3.4
		c0,2,2,3.5,4.5,3.5c3.3,0,5-1.1,5-3.4c0-0.2,0-0.4-0.1-0.7C147.4,96.4,146.6,95.8,145.4,95z"/>
	<path fill="#231F20" d="M148.1,65.3c-13.6,0-24.6,11-24.6,24.6c0,13.6,11,24.6,24.6,24.6c13.6,0,24.6-11,24.6-24.6
		C172.7,76.3,161.7,65.3,148.1,65.3z M145.9,103.3c-1,0.3-2,0.4-3.2,0.4c-1.2,0-2.4-0.1-3.5-0.4c-2.2-0.5-3.7-1.6-4.5-2.9
		c-0.3-0.6-0.5-1.2-0.5-1.8c0-0.7,0.2-1.3,0.5-2c1.2-2.5,4.3-4.2,7.7-4.2c0,0,0.1,0,0.1,0c-0.3-0.5-0.4-1-0.4-1.5
		c0-0.3,0-0.5,0.1-0.8c-3.6-0.1-6.3-2.7-6.3-6.2c0-2.5,2-4.9,4.8-5.8c0.8-0.3,1.7-0.4,2.5-0.4h7.7c0.3,0,0.5,0.2,0.6,0.4
		c0.1,0.3,0,0.5-0.2,0.7l-1.7,1.2c-0.1,0.1-0.2,0.1-0.4,0.1h-0.6c0.8,1,1.3,2.3,1.3,3.8c0,1.7-0.9,3.3-2.4,4.5
		c-1.2,0.9-1.2,1.2-1.2,1.7c0,0.3,0.9,1.3,1.8,1.9c2.2,1.5,3,3,3,5.5C150.9,100.2,148.9,102.5,145.9,103.3z M163.3,90.1
		c0,0.3-0.3,0.6-0.6,0.6h-4.4v4.4c0,0.3-0.3,0.6-0.6,0.6h-1.2c-0.3,0-0.6-0.3-0.6-0.6v-4.4h-4.4c-0.3,0-0.6-0.3-0.6-0.6v-1.2
		c0-0.3,0.3-0.6,0.6-0.6h4.4v-4.4c0-0.3,0.3-0.6,0.6-0.6h1.2c0.3,0,0.6,0.3,0.6,0.6v4.4h4.4c0.3,0,0.6,0.3,0.6,0.6V90.1z"/>
</g>
<path fill="#231F20" d="M29.6,5C16,5,5,16,5,29.6c0,13.6,11,24.6,24.6,24.6c13.6,0,24.6-11,24.6-24.6C54.3,16,43.2,5,29.6,5z
	 M42,24.7c0,0.3,0,0.5,0,0.8c0,8.2-6.2,17.7-17.7,17.7c-3.5,0-6.8-1-9.5-2.8c0.5,0.1,1,0.1,1.5,0.1c2.9,0,5.6-1,7.7-2.7
	c-2.7-0.1-5-1.8-5.8-4.3c0.4,0.1,0.8,0.1,1.2,0.1c0.6,0,1.1-0.1,1.6-0.2c-2.8-0.6-5-3.1-5-6.1c0,0,0-0.1,0-0.1
	c0.8,0.5,1.8,0.7,2.8,0.8c-1.7-1.1-2.8-3-2.8-5.2c0-1.1,0.3-2.2,0.8-3.1c3.1,3.8,7.6,6.2,12.8,6.5c-0.1-0.5-0.2-0.9-0.2-1.4
	c0-3.4,2.8-6.2,6.2-6.2c1.8,0,3.4,0.8,4.5,2c1.4-0.3,2.7-0.8,3.9-1.5c-0.5,1.5-1.4,2.7-2.7,3.4c1.3-0.2,2.5-0.5,3.6-1
	C44.3,22.7,43.2,23.8,42,24.7z"/>
<g>
	<path fill="#231F20" d="M148.1,5c-13.6,0-24.6,11-24.6,24.6c0,10.1,6.1,18.7,14.7,22.6c-0.1-1.7,0-3.8,0.4-5.7
		c0.5-2,3.2-13.4,3.2-13.4s-0.8-1.6-0.8-3.9c0-3.6,2.1-6.4,4.7-6.4c2.2,0,3.3,1.7,3.3,3.7c0,2.3-1.4,5.6-2.2,8.7
		c-0.6,2.6,1.3,4.7,3.9,4.7c4.7,0,7.8-6,7.8-13.1c0-5.4-3.6-9.4-10.2-9.4c-7.5,0-12.1,5.6-12.1,11.8c0,2.1,0.6,3.7,1.6,4.8
		c0.5,0.5,0.5,0.8,0.4,1.4c-0.1,0.5-0.4,1.5-0.5,2c-0.2,0.6-0.7,0.8-1.2,0.6c-3.4-1.4-5-5.2-5-9.4c0-7,5.9-15.4,17.6-15.4
		c9.4,0,15.6,6.8,15.6,14.1c0,9.7-5.4,16.9-13.3,16.9c-2.7,0-5.2-1.4-6-3.1c0,0-1.4,5.7-1.7,6.8c-0.5,1.9-1.5,3.8-2.5,5.3
		c2.2,0.7,4.6,1,7,1c13.6,0,24.6-11,24.6-24.6C172.7,16,161.7,5,148.1,5z"/>
</g>
</svg>
